<svg width="1440" height="900" viewBox="0 0 1440 900" xmlns="http://www.w3.org/2000/svg" role="img" aria-labelledby="title desc">
  <title id="title">Track What Matters</title>
  <desc id="desc">Analytics view with charts for workflows, completion, and team.</desc>
  <defs>
    <linearGradient id="bg4" x1="0" y1="0" x2="1" y2="1">
      <stop offset="0%" stop-color="#020617" />
      <stop offset="50%" stop-color="#020617" />
      <stop offset="100%" stop-color="#020617" />
    </linearGradient>
  </defs>
  <rect x="0" y="0" width="1440" height="900" fill="url(#bg4)" />
  <rect x="180" y="140" width="1080" height="620" rx="28" fill="#020617" stroke="#1e293b" stroke-width="2" />
  <text x="220" y="200" fill="#e5e7eb" font-family="system-ui, -apple-system, BlinkMacSystemFont" font-size="26" font-weight="600">Analytics overview</text>
  <text x="220" y="234" fill="#9ca3af" font-family="system-ui, -apple-system, BlinkMacSystemFont" font-size="16">Understand throughput, completion rate, and team load at a glance.</text>

  <rect x="220" y="260" width="520" height="260" rx="18" fill="#020617" stroke="#1f2937" />
  <text x="240" y="300" fill="#e5e7eb" font-family="system-ui, -apple-system, BlinkMacSystemFont" font-size="18">Workflow throughput</text>
  <polyline points="250,460 290,420 330,440 370,380 410,390 450,350 490,360 530,330 570,340 610,310 640,320 700,290" fill="none" stroke="#3b82f6" stroke-width="3" />

  <rect x="740" y="260" width="340" height="260" rx="18" fill="#020617" stroke="#1f2937" />
  <text x="760" y="300" fill="#e5e7eb" font-family="system-ui, -apple-system, BlinkMacSystemFont" font-size="18">Completion rate</text>
  <circle cx="910" cy="380" r="80" fill="#020617" stroke="#1f2937" stroke-width="2" />
  <path d="M910 300 A80 80 0 1 1 842 438 L910 380Z" fill="#22c55e" />
  <text x="890" y="388" fill="#e5e7eb" font-family="system-ui, -apple-system, BlinkMacSystemFont" font-size="22" font-weight="600">84%</text>

  <rect x="220" y="540" width="860" height="140" rx="18" fill="#020617" stroke="#1f2937" />
  <text x="240" y="580" fill="#e5e7eb" font-family="system-ui, -apple-system, BlinkMacSystemFont" font-size="18">Team load</text>
  <rect x="240" y="600" width="260" height="14" rx="7" fill="#111827" />
  <rect x="240" y="600" width="180" height="14" rx="7" fill="#3b82f6" />
  <rect x="540" y="600" width="260" height="14" rx="7" fill="#111827" />
  <rect x="540" y="600" width="120" height="14" rx="7" fill="#22c55e" />
  <rect x="840" y="600" width="260" height="14" rx="7" fill="#111827" />
  <rect x="840" y="600" width="210" height="14" rx="7" fill="#f97316" />
</svg>