<svg width="1440" height="900" viewBox="0 0 1440 900" xmlns="http://www.w3.org/2000/svg" role="img" aria-labelledby="title desc">
  <title id="title">Manage Your Team</title>
  <desc id="desc">Team member list with roles and plan limits.</desc>
  <defs>
    <linearGradient id="bg3" x1="0" y1="0" x2="1" y2="1">
      <stop offset="0%" stop-color="#020617" />
      <stop offset="50%" stop-color="#0b1120" />
      <stop offset="100%" stop-color="#020617" />
    </linearGradient>
  </defs>
  <rect x="0" y="0" width="1440" height="900" fill="url(#bg3)" />
  <rect x="240" y="150" width="960" height="600" rx="28" fill="#020617" stroke="#1e293b" stroke-width="2" />
  <text x="280" y="210" fill="#e5e7eb" font-family="system-ui, -apple-system, BlinkMacSystemFont" font-size="26" font-weight="600">Team members</text>
  <text x="280" y="242" fill="#9ca3af" font-family="system-ui, -apple-system, BlinkMacSystemFont" font-size="16">Stay within Free vs Pro limits while inviting collaborators.</text>
  <rect x="880" y="180" width="260" height="56" rx="999" fill="#111827" stroke="#1d4ed8" />
  <text x="900" y="215" fill="#93c5fd" font-family="system-ui, -apple-system, BlinkMacSystemFont" font-size="16">Plan: Free · 2 / 2 seats used</text>
  <g font-family="system-ui, -apple-system, BlinkMacSystemFont" font-size="18">
    <rect x="280" y="280" width="880" height="64" rx="14" fill="#020617" stroke="#1f2937" />
    <circle cx="312" cy="312" r="18" fill="#1d4ed8" />
    <text x="340" y="318" fill="#e5e7eb">Alex (Owner)</text>
    <text x="840" y="318" fill="#6ee7b7">Admin</text>

    <rect x="280" y="360" width="880" height="64" rx="14" fill="#020617" stroke="#1f2937" />
    <circle cx="312" cy="392" r="18" fill="#0ea5e9" />
    <text x="340" y="398" fill="#e5e7eb">Jordan</text>
    <text x="840" y="398" fill="#facc15">Manager</text>

    <rect x="280" y="440" width="880" height="64" rx="14" fill="#020617" stroke="#1f2937" stroke-dasharray="6 6" />
    <circle cx="312" cy="472" r="18" fill="#1f2937" />
    <text x="340" y="478" fill="#6b7280">Seat available</text>
    <text x="840" y="478" fill="#6b7280">Invite</text>
  </g>
</svg>